<?xml version="1.0" standalone="no"?>
<!DOCTYPE svg PUBLIC "-//W3C//DTD SVG 20010904//EN"
 "http://www.w3.org/TR/2001/REC-SVG-20010904/DTD/svg10.dtd">
<svg version="1.0" xmlns="http://www.w3.org/2000/svg"
 width="512.000000pt" height="512.000000pt" viewBox="0 0 512.000000 512.000000"
 preserveAspectRatio="xMidYMid meet">
<metadata>
Created by potrace 1.14, written by Peter Selinger 2001-2017
</metadata>
<g transform="translate(0.000000,512.000000) scale(0.100000,-0.100000)"
fill="#000000" stroke="none">
<path d="M153 4062 c45 -131 255 -739 467 -1350 l385 -1112 291 0 292 0 62
178 c34 97 89 257 123 355 l62 177 120 38 120 38 3 -1033 2 -1033 270 0 270 0
-2 1353 -3 1352 -21 3 c-11 2 -236 -74 -500 -169 -263 -94 -487 -174 -496
-177 -25 -6 -25 54 0 66 9 6 109 42 222 82 113 40 210 78 217 84 7 6 113 301
237 656 123 355 231 664 240 688 l15 42 -311 -2 -311 -3 -303 -1003 c-166
-552 -304 -1005 -306 -1008 -3 -2 -456 1495 -596 1969 l-14 47 -308 0 -309 0
82 -238z"/>
<path d="M3482 2130 l-563 -890 13 -167 13 -168 553 -3 552 -2 0 -290 0 -290
270 0 270 0 0 290 0 290 28 1 c15 0 82 0 150 -1 l122 -1 0 220 0 221 -150 0
-150 0 0 840 0 840 -272 0 -273 0 -563 -890z m565 -787 c-2 -2 -135 -2 -296
-1 l-292 3 108 171 c60 94 191 303 293 465 l185 295 3 -465 c1 -255 1 -466 -1
-468z"/>
</g>
</svg>
